<svg width="64" height="64" viewBox="106 -0.5 33 34" fill="none" xmlns="http://www.w3.org/2000/svg">
  <path d="M129.954 15.8163H115.416V18.1774H129.954V15.8163Z" fill="#D35400"/>
  <path d="M129.954 19.7744H115.416V20.9566H129.954V19.7744Z" fill="#D35400"/>
  <path d="M129.954 11.963H115.416V14.3242H129.954V11.963Z" fill="#D35400"/>
  <path d="M136.188 7.69661C134.796 5.22891 132.879 3.33345 130.492 2.05943C128.162 0.816557 125.535 0.185284 122.685 0.185284C119.835 0.185284 117.209 0.814917 114.872 2.05779C112.475 3.33181 110.556 5.23055 109.171 7.70153C107.808 10.1282 107.118 13.0944 107.118 16.5197C107.118 19.945 107.81 22.8718 109.173 25.2936C110.558 27.7547 112.475 29.6518 114.867 30.9324C117.205 32.1818 119.835 32.8164 122.685 32.8164C125.535 32.8164 128.162 32.1851 130.492 30.9422C132.879 29.6682 134.794 27.776 136.186 25.3165C137.557 22.8931 138.252 19.9335 138.252 16.5197C138.252 13.1059 137.557 10.1266 136.188 7.69825V7.69661ZM122.685 28.1007C120.619 28.1007 118.737 27.6547 117.092 26.7742C115.502 25.9232 114.219 24.6475 113.282 22.98C112.321 21.2731 111.834 19.0989 111.834 16.518C111.834 13.9372 112.321 11.722 113.283 10.0085C114.221 8.33772 115.502 7.0637 117.087 6.21927C118.735 5.34369 120.617 4.89934 122.685 4.89934C124.753 4.89934 126.632 5.34369 128.271 6.21763C129.855 7.06206 131.138 8.33936 132.08 10.0135C133.046 11.7253 133.536 13.9142 133.536 16.518C133.536 19.1218 133.048 21.2878 132.082 22.9931C131.138 24.6623 129.855 25.9363 128.271 26.7824C126.632 27.658 124.753 28.1007 122.685 28.1007Z" fill="#D35400"/>
</svg>
