<svg width="173" height="33" viewBox="0 0 173 33" fill="none" xmlns="http://www.w3.org/2000/svg">
<g clip-path="url(#clip0_142_171)">
<path d="M8.92636 0V32.9197H0V0H8.92636ZM12.6812 32.9197H3.66794V25.3198H12.3287C13.9634 25.3198 15.3588 25.0624 16.5148 24.5459C17.6707 24.0294 18.5512 23.1275 19.1546 21.8388C19.758 20.55 20.0597 18.7644 20.0597 16.4803C20.0597 14.1963 19.7498 12.3893 19.1317 11.1006C18.5135 9.81179 17.6117 8.90669 16.4246 8.38363C15.2375 7.86058 13.7847 7.59987 12.0614 7.59987H3.53513V0H12.55C15.9376 0 18.8611 0.659147 21.3206 1.97744C23.7801 3.29574 25.6805 5.18464 27.0201 7.64414C28.3597 10.1036 29.0304 13.0501 29.0304 16.482C29.0304 19.9138 28.3647 22.8373 27.0316 25.2968C25.6985 27.7563 23.8097 29.642 21.3649 30.9521C18.9202 32.2621 16.0261 32.918 12.6828 32.918L12.6812 32.9197Z" fill="#D35400"/>
<path d="M28.9402 32.9197L39.6112 0H51.807L62.8764 32.9197H52.758L48.936 20.1499C48.1112 17.3805 47.3373 14.5045 46.6158 11.522C45.8944 8.5394 45.209 5.57488 44.5613 2.63003H46.5945C45.9764 5.57652 45.35 8.5394 44.7171 11.522C44.0842 14.5045 43.3693 17.3805 42.574 20.1499L38.9291 32.9197H28.9435H28.9402ZM36.85 26.6004V19.9286H54.9667V26.6004H36.85Z" fill="#D35400"/>
<path d="M59.5315 7.20307V0H90.1474V7.20307H79.6191V32.9197H70.0598V7.20307H59.5315Z" fill="#D35400"/>
<path d="M102.94 0V32.9197H94.0137V0H102.94Z" fill="#D35400"/>
<path d="M156.446 33C153.527 33 150.884 32.3671 148.52 31.1013C146.154 29.8354 144.281 27.9777 142.901 25.5264C141.52 23.0751 140.83 20.0728 140.83 16.5213C140.83 12.9698 141.52 9.92164 142.901 7.46214C144.281 5.00263 146.154 3.14489 148.52 1.88726C150.886 0.629633 153.527 0 156.446 0C159.364 0 162.003 0.629633 164.362 1.88726C166.72 3.14489 168.593 5.00427 169.981 7.46214C171.369 9.92164 172.062 12.9403 172.062 16.5213C172.062 20.1024 171.369 23.0964 169.981 25.5477C168.594 27.999 166.722 29.8535 164.362 31.1127C162.004 32.3704 159.366 33 156.446 33ZM156.446 25.4083C157.899 25.4083 159.117 25.0673 160.102 24.3835C161.088 23.6998 161.832 22.698 162.334 21.3747C162.837 20.0515 163.088 18.4348 163.088 16.5213C163.088 14.6078 162.837 12.9665 162.334 11.6367C161.831 10.307 161.086 9.30021 160.102 8.61647C159.117 7.93272 157.899 7.59167 156.446 7.59167C154.993 7.59167 153.796 7.93272 152.812 8.61647C151.827 9.30021 151.079 10.3053 150.569 11.6367C150.059 12.9665 149.804 14.5947 149.804 16.5213C149.804 18.4479 150.059 20.0515 150.569 21.3747C151.079 22.698 151.827 23.6998 152.812 24.3835C153.798 25.0673 155.01 25.4083 156.446 25.4083Z" fill="#D35400"/>
<path d="M129.954 15.8163H115.416V18.1774H129.954V15.8163Z" fill="#D35400"/>
<path d="M129.954 19.7744H115.416V20.9566H129.954V19.7744Z" fill="#D35400"/>
<path d="M129.954 11.963H115.416V14.3242H129.954V11.963Z" fill="#D35400"/>
<path d="M136.188 7.69661C134.796 5.22891 132.879 3.33345 130.492 2.05943C128.162 0.816557 125.535 0.185284 122.685 0.185284C119.835 0.185284 117.209 0.814917 114.872 2.05779C112.475 3.33181 110.556 5.23055 109.171 7.70153C107.808 10.1282 107.118 13.0944 107.118 16.5197C107.118 19.945 107.81 22.8718 109.173 25.2936C110.558 27.7547 112.475 29.6518 114.867 30.9324C117.205 32.1818 119.835 32.8164 122.685 32.8164C125.535 32.8164 128.162 32.1851 130.492 30.9422C132.879 29.6682 134.794 27.776 136.186 25.3165C137.557 22.8931 138.252 19.9335 138.252 16.5197C138.252 13.1059 137.557 10.1266 136.188 7.69825V7.69661ZM122.685 28.1007C120.619 28.1007 118.737 27.6547 117.092 26.7742C115.502 25.9232 114.219 24.6475 113.282 22.98C112.321 21.2731 111.834 19.0989 111.834 16.518C111.834 13.9372 112.321 11.722 113.283 10.0085C114.221 8.33772 115.502 7.0637 117.087 6.21927C118.735 5.34369 120.617 4.89934 122.685 4.89934C124.753 4.89934 126.632 5.34369 128.271 6.21763C129.855 7.06206 131.138 8.33936 132.08 10.0135C133.046 11.7253 133.536 13.9142 133.536 16.518C133.536 19.1218 133.048 21.2878 132.082 22.9931C131.138 24.6623 129.855 25.9363 128.271 26.7824C126.632 27.658 124.753 28.1007 122.685 28.1007Z" fill="#D35400"/>
</g>
<defs>
<clipPath id="clip0_142_171">
<rect width="172.06" height="33" fill="white"/>
</clipPath>
</defs>
</svg>
